<svg xmlns="http://www.w3.org/2000/svg" xmlns:xlink="http://www.w3.org/1999/xlink" width="500" zoomAndPan="magnify" viewBox="0 0 375 374.999991" height="500" preserveAspectRatio="xMidYMid meet" version="1.0"><defs><clipPath id="ac755d2941"><path d="M 64.414062 34.050781 L 305 34.050781 L 305 337.800781 L 64.414062 337.800781 Z M 64.414062 34.050781 " clip-rule="nonzero"/></clipPath></defs><g clip-path="url(#ac755d2941)"><path fill="#ffffff" d="M 125.09375 337.496094 C 119.429688 337.496094 113.617188 337.195312 107.953125 336.894531 C 102.289062 336.589844 96.777344 336.289062 91.492188 336.289062 L 88.019531 336.289062 C 86.644531 336.503906 85.261719 336.601562 83.867188 336.589844 C 77.375 336.589844 71.789062 334.550781 68.390625 330.929688 C 64.992188 327.304688 64.464844 324.433594 64.691406 320.054688 C 64.992188 270.902344 65.519531 222.507812 65.972656 175.769531 C 66.351562 143.757812 66.652344 110.6875 66.957031 77.316406 C 66.652344 67.195312 72.390625 62.214844 77.902344 57.382812 C 80.28125 55.433594 82.46875 53.296875 84.472656 50.964844 L 84.625 50.8125 C 87.113281 49.226562 89.457031 47.414062 91.71875 45.679688 C 97.382812 41.222656 102.820312 36.996094 110.292969 36.996094 L 110.746094 36.996094 C 124.335938 36.46875 137.324219 36.089844 149.933594 35.710938 L 182.398438 34.730469 L 193.648438 34.429688 C 199.011719 34.203125 204.523438 34.050781 209.957031 34.050781 C 226.039062 34.050781 244.765625 35.484375 261.074219 45.980469 C 293.386719 64.707031 310.527344 106.988281 301.996094 146.476562 C 299.351562 165.804688 284.101562 188.226562 261.148438 206.574219 C 238.195312 224.921875 211.390625 235.792969 189.496094 235.792969 L 188.589844 235.792969 C 183.910156 235.792969 179.378906 235.644531 175.074219 235.492188 C 176.132812 245.308594 177.191406 254.972656 178.246094 264.710938 C 179.078125 272.941406 179.984375 281.246094 180.890625 289.628906 C 181.796875 298.007812 182.550781 304.804688 177.492188 309.710938 C 167.601562 319.980469 162.996094 324.585938 147.59375 334.929688 L 147.367188 335.082031 C 141.175781 336.742188 134.078125 337.496094 125.09375 337.496094 Z M 167.601562 130.242188 C 167.675781 132.355469 167.601562 134.320312 167.523438 136.28125 C 167.449219 138.246094 167.375 138.09375 167.375 139.074219 L 169.640625 138.925781 L 179.832031 138.394531 L 181.417969 138.394531 C 179.152344 133.1875 175 131.527344 167.601562 130.242188 Z M 167.601562 130.242188 " fill-opacity="1" fill-rule="nonzero"/></g><path fill="#ffffff" d="M 186.628906 225.980469 C 212.523438 226.582031 233.664062 215.105469 252.464844 200.308594 C 271.265625 185.511719 289.007812 168.824219 292.332031 144.664062 C 303.128906 94.527344 269.226562 42.886719 216.300781 43.941406 C 195.988281 44.019531 175.378906 44.699219 155.597656 45.378906 C 139.363281 46.660156 122.074219 45.152344 105.839844 47.71875 C 105.613281 47.792969 91.570312 57.910156 91.34375 57.984375 C 88.324219 60.957031 85.304688 63.976562 82.28125 67.046875 C 79.261719 70.140625 76.167969 71.652344 76.769531 76.9375 C 76.089844 158.554688 74.960938 238.589844 74.507812 320.433594 C 74.203125 325.039062 77.902344 326.925781 82.507812 326.625 C 102.289062 326.019531 123.054688 328.964844 142.457031 326.550781 C 146.761719 323.527344 158.390625 315.753906 161.484375 311.75 C 165.636719 306.464844 173.488281 303.746094 171.679688 295.59375 C 169.109375 272.035156 166.621094 248.933594 164.050781 225.222656 C 171.527344 225.527344 179.152344 225.902344 186.628906 225.980469 Z M 169.867188 148.738281 C 157.40625 150.097656 157.179688 149.269531 157.632812 135.679688 C 158.464844 129.789062 156.050781 124.730469 158.390625 119.898438 C 177.339844 119.671875 193.273438 125.484375 192.59375 147.15625 C 184.964844 148.0625 177.339844 148.4375 169.867188 148.738281 Z M 169.867188 148.738281 " fill-opacity="1" fill-rule="nonzero"/><path fill="#ffffff" d="M 166.242188 304.578125 L 165.335938 304.578125 L 118.523438 303.898438 L 109.613281 303.746094 L 108.859375 303.746094 C 106.140625 303.746094 104.253906 303.144531 103.046875 301.859375 C 102.535156 301.25 102.164062 300.566406 101.929688 299.804688 C 101.691406 299.046875 101.613281 298.273438 101.6875 297.480469 C 101.988281 249.613281 102.441406 200.761719 102.96875 153.496094 C 103.273438 120.878906 103.648438 87.207031 103.875 54.058594 C 103.953125 48.019531 104.933594 47.113281 111.050781 46.886719 L 125.167969 46.433594 C 135.359375 46.207031 145.628906 45.828125 155.597656 45.453125 C 174.699219 44.773438 194.480469 44.09375 214.1875 44.09375 L 216.300781 44.09375 C 240.082031 44.09375 261.074219 53.757812 275.417969 71.199219 C 291.273438 90.527344 297.617188 118.085938 292.332031 144.8125 C 289.460938 162.632812 279.796875 177.734375 264.394531 188.304688 C 250.425781 197.890625 232.457031 203.175781 213.808594 203.175781 L 209.429688 203.175781 C 199.914062 202.875 190.328125 202.5 181.039062 202.046875 L 169.1875 201.59375 L 165.636719 201.59375 C 164.457031 201.511719 163.425781 201.863281 162.542969 202.648438 C 161.710938 203.628906 161.785156 204.988281 162.011719 207.253906 C 164.203125 226.960938 166.394531 246.96875 168.507812 266.296875 L 171.679688 295.96875 C 172.28125 298.839844 171.90625 301.40625 170.621094 302.992188 C 170.050781 303.578125 169.378906 304.007812 168.613281 304.285156 C 167.84375 304.5625 167.054688 304.660156 166.242188 304.578125 Z M 157.558594 128.503906 C 157.820312 130.894531 157.84375 133.285156 157.632812 135.679688 C 157.484375 140.433594 157.257812 146.398438 159.21875 148.511719 C 159.761719 148.980469 160.390625 149.207031 161.109375 149.191406 L 161.484375 149.191406 L 169.867188 148.738281 C 179.832031 148.289062 190.101562 147.757812 200.21875 146.097656 C 214.261719 143.984375 220.152344 132.128906 219.773438 121.40625 C 219.394531 110.6875 212.523438 99.136719 198.105469 97.925781 C 188.890625 97.097656 179.605469 96.566406 170.621094 96.039062 L 166.996094 95.738281 L 162.84375 95.511719 C 160.65625 95.511719 159.296875 95.886719 158.617188 96.644531 C 157.9375 97.398438 157.785156 98.457031 158.011719 100.039062 L 158.011719 100.265625 C 158.085938 105.25 158.164062 110.308594 158.3125 115.140625 C 158.3125 116.726562 158.390625 118.3125 158.390625 119.898438 C 158.410156 120.476562 158.183594 120.929688 157.710938 121.257812 C 157.179688 121.785156 157.40625 124.882812 157.484375 126.089844 C 157.578125 126.890625 157.605469 127.699219 157.558594 128.503906 Z M 157.558594 128.503906 " fill-opacity="1" fill-rule="nonzero"/><path fill="#ffffff" d="M 106.367188 326.324219 C 106.09375 326.3125 105.84375 326.230469 105.613281 326.082031 C 105.382812 325.933594 105.207031 325.738281 105.085938 325.492188 C 99.421875 325.265625 93.683594 325.039062 88.019531 325.039062 L 82.132812 325.039062 C 81.824219 325.039062 81.542969 324.957031 81.28125 324.792969 C 81.023438 324.628906 80.828125 324.410156 80.695312 324.132812 C 80.574219 323.824219 80.554688 323.511719 80.636719 323.191406 C 80.722656 322.871094 80.890625 322.605469 81.148438 322.394531 L 102.441406 304.503906 C 102.738281 304.296875 103.0625 304.195312 103.421875 304.199219 L 104.101562 304.199219 C 105.621094 304.855469 107.207031 305.15625 108.859375 305.105469 L 109.613281 305.105469 L 118.523438 305.257812 L 161.335938 305.859375 C 161.640625 305.863281 161.921875 305.953125 162.171875 306.132812 C 162.421875 306.3125 162.597656 306.550781 162.691406 306.84375 C 162.808594 307.132812 162.828125 307.429688 162.761719 307.730469 C 162.691406 308.035156 162.542969 308.292969 162.316406 308.503906 C 161.59375 309.222656 160.914062 309.976562 160.277344 310.769531 C 158.011719 313.714844 150.6875 319 143.136719 324.207031 L 142.230469 324.8125 C 142.027344 324.957031 141.800781 325.035156 141.550781 325.039062 C 135.882812 325.683594 130.195312 325.984375 124.488281 325.945312 C 118.902344 325.945312 113.164062 325.71875 107.652344 325.492188 C 107.382812 325.960938 106.980469 326.210938 106.445312 326.246094 Z M 106.367188 326.324219 " fill-opacity="1" fill-rule="nonzero"/><path fill="#ffffff" d="M 209.882812 103.96875 C 208.183594 102.621094 206.324219 101.5625 204.304688 100.792969 C 202.28125 100.019531 200.1875 99.566406 198.027344 99.4375 C 188.816406 98.605469 179.605469 98.078125 170.695312 97.550781 L 170.546875 97.550781 L 166.921875 97.246094 L 162.84375 97.019531 C 162.078125 97 161.324219 97.078125 160.578125 97.246094 C 160.242188 97.320312 159.96875 97.492188 159.753906 97.761719 C 159.542969 98.03125 159.4375 98.339844 159.445312 98.683594 C 159.4375 99.085938 159.464844 99.488281 159.523438 99.890625 L 159.523438 100.191406 C 159.597656 105.25 159.671875 110.234375 159.824219 115.066406 L 159.824219 116.953125 C 159.84375 117.144531 159.894531 117.324219 159.976562 117.496094 C 160.058594 117.667969 160.171875 117.820312 160.308594 117.953125 C 160.449219 118.085938 160.605469 118.1875 160.78125 118.261719 C 160.960938 118.339844 161.144531 118.378906 161.335938 118.386719 C 172.960938 118.691406 181.644531 121.484375 187.082031 126.769531 Z M 209.882812 103.96875 " fill-opacity="1" fill-rule="nonzero"/><path fill="#ffffff" d="M 198.179688 223.941406 L 217.660156 204.460938 L 209.355469 204.460938 C 199.839844 204.160156 190.328125 203.78125 181.039062 203.328125 L 180.8125 203.328125 L 169.1875 202.875 L 165.636719 202.875 L 164.429688 203.027344 C 164.121094 203.109375 163.871094 203.277344 163.675781 203.53125 C 163.480469 203.78125 163.378906 204.066406 163.371094 204.386719 C 163.371094 204.988281 163.449219 206.046875 163.523438 206.878906 C 164.128906 212.085938 164.730469 217.371094 165.261719 222.65625 C 165.296875 223.03125 165.453125 223.347656 165.722656 223.605469 C 165.996094 223.863281 166.320312 224 166.695312 224.015625 L 166.847656 224.015625 C 173.339844 224.242188 180.058594 224.542969 186.703125 224.621094 L 188.742188 224.621094 C 191.902344 224.585938 195.046875 224.359375 198.179688 223.941406 Z M 198.179688 223.941406 " fill-opacity="1" fill-rule="nonzero"/><path fill="#000000" d="M 124.488281 330.550781 C 118.371094 330.550781 112.183594 330.324219 106.21875 330.097656 L 106.140625 330.097656 C 100.175781 329.871094 93.984375 329.644531 88.019531 329.644531 L 81.527344 329.644531 C 78.28125 329.644531 75.636719 328.738281 73.828125 326.925781 C 72.984375 326.035156 72.359375 325.007812 71.953125 323.851562 C 71.542969 322.695312 71.390625 321.503906 71.484375 320.28125 C 71.789062 271.808594 72.316406 223.1875 72.769531 176.148438 C 73.148438 143.832031 73.449219 110.460938 73.75 77.089844 C 73.148438 71.425781 76.167969 68.632812 78.582031 66.367188 L 80.167969 64.933594 C 83.339844 61.609375 86.359375 58.664062 89.230469 55.796875 L 89.605469 55.496094 L 89.832031 55.34375 L 89.910156 55.34375 L 95.269531 51.566406 L 103.726562 45.601562 L 104.328125 45.226562 L 104.554688 45.074219 L 104.933594 44.925781 C 106.878906 44.1875 108.894531 43.835938 110.972656 43.867188 L 115.203125 43.714844 C 122.148438 43.1875 129.320312 43.113281 135.585938 43.035156 L 138.304688 43.035156 L 155.445312 42.433594 L 182.625 41.527344 L 201.726562 41.148438 L 215.996094 40.996094 L 218.035156 40.996094 C 220.878906 41.007812 223.714844 41.175781 226.539062 41.496094 C 229.363281 41.816406 232.164062 42.292969 234.9375 42.917969 C 237.710938 43.546875 240.441406 44.320312 243.132812 45.246094 C 245.820312 46.171875 248.449219 47.242188 251.023438 48.453125 C 253.59375 49.667969 256.09375 51.015625 258.515625 52.503906 C 260.941406 53.988281 263.277344 55.601562 265.523438 57.34375 C 267.773438 59.082031 269.917969 60.941406 271.964844 62.917969 C 274.011719 64.894531 275.941406 66.972656 277.757812 69.160156 C 281.40625 73.664062 284.558594 78.492188 287.214844 83.640625 C 289.875 88.789062 291.980469 94.15625 293.539062 99.738281 C 295.730469 107.148438 296.976562 114.710938 297.269531 122.433594 C 297.5625 130.152344 296.898438 137.789062 295.277344 145.34375 C 294.496094 150.8125 292.988281 156.074219 290.746094 161.121094 C 287.765625 168.082031 283.714844 174.347656 278.589844 179.921875 C 271.566406 188.152344 262.808594 195.777344 254.429688 202.722656 C 240.007812 214.050781 217.507812 229.074219 188.589844 229.074219 L 186.628906 229.074219 C 180.210938 229 173.714844 228.699219 167.449219 228.472656 C 168.808594 241.003906 170.167969 253.460938 171.453125 265.695312 L 171.453125 265.996094 C 172.28125 274.148438 173.1875 282.304688 174.09375 290.457031 L 174.621094 295.140625 C 174.710938 295.589844 174.761719 296.042969 174.773438 296.5 C 175.152344 299.671875 174.472656 302.613281 172.886719 304.578125 L 172.28125 305.257812 C 170.917969 306.960938 169.382812 308.5 167.675781 309.863281 C 166.28125 311.007812 164.996094 312.265625 163.824219 313.636719 C 160.957031 317.335938 152.953125 323 145.628906 328.058594 L 143.667969 329.417969 L 143.289062 329.570312 L 142.761719 329.570312 C 136.691406 330.277344 130.601562 330.601562 124.488281 330.550781 Z M 88.019531 323.527344 C 94.136719 323.527344 100.328125 323.753906 106.292969 324.058594 C 112.183594 324.285156 118.296875 324.511719 124.335938 324.511719 C 129.96875 324.550781 135.582031 324.25 141.175781 323.605469 L 142.082031 323 C 146.761719 319.828125 156.5 313.109375 158.917969 309.863281 L 161.183594 307.445312 L 118.375 306.84375 L 109.539062 306.691406 L 108.859375 306.691406 C 106.976562 306.753906 105.164062 306.425781 103.421875 305.710938 L 82.132812 323.605469 L 88.019531 323.605469 Z M 93.304688 60.328125 C 90.4375 63.042969 87.566406 65.914062 84.472656 69.160156 L 82.734375 70.820312 C 80.46875 72.859375 79.488281 73.839844 79.792969 76.636719 L 79.792969 76.9375 C 79.488281 110.007812 79.1875 143.453125 78.808594 175.769531 L 78.808594 176.296875 C 78.355469 223.035156 77.828125 271.355469 77.527344 319.527344 L 99.269531 301.332031 C 98.789062 300.039062 98.589844 298.707031 98.667969 297.328125 C 98.96875 249.535156 99.421875 200.761719 99.949219 153.648438 L 99.949219 153.421875 C 100.253906 121.332031 100.628906 88.113281 100.855469 54.890625 L 98.667969 56.476562 Z M 118.597656 300.800781 L 165.410156 301.480469 L 166.242188 301.480469 C 166.871094 301.546875 167.425781 301.371094 167.902344 300.953125 C 168.746094 299.773438 169.074219 298.464844 168.882812 297.027344 C 168.808594 296.726562 168.808594 296.421875 168.734375 296.121094 L 168.734375 295.894531 L 168.429688 292.722656 C 167.449219 283.964844 166.542969 275.207031 165.5625 266.449219 L 165.5625 265.84375 C 164.128906 252.480469 162.691406 239.117188 161.183594 225.527344 L 160.957031 222.882812 C 160.351562 217.597656 159.75 212.390625 159.21875 207.105469 C 158.917969 204.761719 158.617188 202.273438 160.351562 200.308594 L 160.578125 200.007812 C 161.285156 199.355469 162.089844 198.867188 162.996094 198.539062 C 163.898438 198.210938 164.828125 198.070312 165.789062 198.117188 L 169.488281 198.117188 L 180.738281 198.570312 L 181.34375 198.570312 C 190.628906 198.949219 200.21875 199.402344 209.65625 199.628906 L 213.960938 199.628906 C 232.003906 199.628906 249.371094 194.496094 262.808594 185.285156 C 266.949219 182.460938 270.722656 179.214844 274.136719 175.542969 C 278.742188 170.242188 282.515625 164.402344 285.460938 158.027344 C 287.371094 153.457031 288.703125 148.726562 289.460938 143.832031 C 290.90625 136.75 291.492188 129.59375 291.222656 122.371094 C 290.957031 115.144531 289.839844 108.054688 287.875 101.097656 C 286.355469 95.894531 284.332031 90.898438 281.800781 86.105469 C 279.273438 81.316406 276.289062 76.824219 272.851562 72.632812 C 267.367188 65.914062 260.871094 60.378906 253.371094 56.023438 C 247.742188 52.890625 241.804688 50.53125 235.558594 48.945312 C 229.3125 47.359375 222.96875 46.597656 216.527344 46.660156 L 201.878906 46.660156 L 182.550781 47.113281 L 155.972656 48.398438 L 155.746094 48.398438 C 149.933594 48.851562 143.742188 48.925781 138.382812 49 L 125.242188 49.378906 L 115.503906 49.679688 C 112.410156 49.90625 109.765625 50.210938 107.199219 50.585938 C 106.960938 51.734375 106.859375 52.890625 106.898438 54.058594 C 106.671875 87.207031 106.292969 120.730469 105.992188 153.121094 L 105.992188 153.722656 C 105.460938 200.914062 105.007812 249.613281 104.707031 297.480469 L 104.707031 297.632812 C 104.597656 298.386719 104.773438 299.066406 105.234375 299.671875 C 105.839844 300.347656 107.046875 300.652344 108.859375 300.652344 L 109.613281 300.652344 Z M 166.847656 222.355469 C 173.414062 222.582031 180.132812 222.882812 186.703125 222.960938 L 188.742188 222.960938 C 208.675781 222.960938 227.097656 215.863281 248.011719 199.929688 C 236.980469 204.03125 225.578125 206.066406 213.808594 206.046875 L 209.277344 206.046875 C 199.839844 205.746094 190.25 205.367188 180.964844 204.914062 L 180.8125 204.914062 L 169.109375 204.460938 L 164.882812 204.460938 C 164.890625 205.195312 164.941406 205.921875 165.035156 206.652344 C 165.636719 211.9375 166.242188 217.222656 166.769531 222.507812 Z M 166.847656 222.355469 " fill-opacity="1" fill-rule="nonzero"/><path fill="#000000" d="M 163.675781 152.214844 L 161.109375 152.214844 C 160.339844 152.234375 159.601562 152.101562 158.894531 151.8125 C 158.183594 151.523438 157.5625 151.105469 157.03125 150.550781 C 156.410156 149.859375 155.933594 149.078125 155.597656 148.210938 C 154.613281 146.097656 154.464844 143.152344 154.539062 139.152344 C 154.539062 138.019531 154.613281 136.8125 154.613281 135.679688 L 154.613281 135.527344 C 154.613281 133.867188 154.691406 132.507812 154.691406 131.300781 C 154.597656 130.570312 154.550781 129.84375 154.539062 129.109375 L 154.539062 128.582031 C 154.371094 127.050781 154.324219 125.515625 154.386719 123.976562 C 154.3125 121.484375 154.539062 120.277344 155.371094 119.292969 L 155.371094 115.21875 C 155.21875 110.386719 155.144531 105.402344 155.066406 100.34375 C 154.765625 97.925781 155.21875 96.039062 156.425781 94.679688 C 158.164062 92.71875 160.957031 92.492188 162.917969 92.492188 C 164.382812 92.515625 165.84375 92.617188 167.296875 92.792969 L 170.773438 93.019531 L 170.847656 93.019531 C 179.832031 93.546875 189.117188 94.078125 198.480469 94.90625 C 214.714844 96.265625 222.414062 109.175781 222.867188 121.332031 C 223.320312 133.488281 216.601562 146.625 200.746094 149.117188 L 195.082031 149.871094 L 194.933594 149.871094 L 192.667969 150.097656 L 189.648438 150.402344 L 188.289062 150.550781 L 186.097656 150.777344 L 184.738281 150.777344 L 181.945312 151.003906 L 180.964844 151.003906 L 178.019531 151.230469 L 173.1875 151.457031 L 170.09375 151.609375 C 167.964844 151.949219 165.828125 152.148438 163.675781 152.214844 Z M 161.03125 145.644531 L 161.183594 145.796875 C 161.257812 145.871094 161.484375 146.023438 162.316406 146.171875 L 169.789062 145.71875 L 175.453125 145.492188 L 179 145.265625 L 180.285156 145.265625 L 184.964844 144.964844 L 185.570312 144.964844 L 189.570312 144.585938 C 189.34375 138.621094 187.535156 133.867188 184.210938 130.46875 C 179.605469 125.710938 171.601562 123.21875 160.578125 123.070312 C 160.488281 123.492188 160.4375 123.921875 160.429688 124.351562 C 160.421875 124.90625 160.445312 125.460938 160.503906 126.015625 C 160.578125 126.996094 160.578125 127.75 160.578125 128.503906 C 160.746094 129.429688 160.820312 130.359375 160.804688 131.300781 C 160.910156 132.914062 160.859375 134.523438 160.65625 136.132812 C 160.65625 136.960938 160.65625 137.792969 160.578125 138.621094 C 160.503906 142.019531 160.65625 144.359375 161.03125 145.644531 Z M 161.335938 116.878906 C 173.714844 117.179688 182.851562 120.277344 188.515625 126.089844 C 192.820312 130.46875 195.160156 136.433594 195.535156 143.757812 L 199.765625 143.152344 C 211.921875 141.265625 217.054688 130.921875 216.753906 121.558594 C 216.449219 112.195312 210.410156 102.003906 197.878906 100.945312 C 188.667969 100.039062 179.453125 99.511719 170.546875 99.058594 L 166.769531 98.757812 L 162.84375 98.53125 C 162.210938 98.511719 161.582031 98.5625 160.957031 98.683594 C 160.953125 99.011719 160.976562 99.339844 161.03125 99.664062 L 161.03125 100.191406 C 161.109375 105.175781 161.183594 110.160156 161.335938 114.992188 Z M 161.335938 116.878906 " fill-opacity="1" fill-rule="nonzero"/></svg>